<svg width="65" height="65" viewBox="0 0 65 65" fill="none" xmlns="http://www.w3.org/2000/svg">
<path d="M41.7268 9.73712L41.8704 9.8778L42.0715 9.87989L54.9861 10.0139L55.1201 22.9285L55.1222 23.1296L55.2629 23.2732L64.3001 32.5L55.2629 41.7268L55.1222 41.8704L55.1201 42.0715L54.9861 54.9861L42.0715 55.1201L41.8704 55.1222L41.7268 55.2629L32.5 64.3001L23.2732 55.2629L23.1296 55.1222L22.9285 55.1201L10.0139 54.9861L9.87989 42.0715L9.8778 41.8704L9.73712 41.7268L0.699881 32.5L9.73712 23.2732L9.8778 23.1296L9.87989 22.9285L10.0139 10.0139L22.9285 9.87989L23.1296 9.8778L23.2732 9.73712L32.5 0.699881L41.7268 9.73712Z" stroke="#4532B8"/>
<path d="M40.8428 11.8713L40.9864 12.012L41.1875 12.014L52.8648 12.1352L52.986 23.8125L52.988 24.0136L53.1287 24.1572L61.3001 32.5L53.1287 40.8428L52.988 40.9864L52.986 41.1875L52.8648 52.8648L41.1875 52.986L40.9864 52.988L40.8428 53.1287L32.5 61.3001L24.1572 53.1287L24.0136 52.988L23.8125 52.986L12.1352 52.8648L12.014 41.1875L12.012 40.9864L11.8713 40.8428L3.69988 32.5L11.8713 24.1572L12.012 24.0136L12.014 23.8125L12.1352 12.1352L23.8125 12.014L24.0136 12.012L24.1572 11.8713L32.5 3.69988L40.8428 11.8713Z" stroke="#4532B8"/>
<circle cx="32.5" cy="32.5" r="22" fill="#4532B8" stroke="#4532B8"/>
<circle cx="31" cy="31" r="19.5" fill="white" stroke="#4532B8"/>
</svg>
